<svg width="24" height="24" viewBox="0 0 24 24" fill="none" xmlns="http://www.w3.org/2000/svg">
<path d="M1.27371 0.0010958C1.50133 -0.0104056 1.77459 0.0946204 1.99673 0.314055C2.56974 0.880652 3.14517 1.44483 3.70448 2.02474C4.13781 2.47451 4.11499 3.14462 3.67679 3.59862C3.26598 4.02236 2.55726 4.09136 2.1215 3.68942C1.48429 3.10073 0.869288 2.48661 0.276201 1.85434C-0.0360138 1.5214 -0.0770946 1.09767 0.120398 0.676048C0.329455 0.227492 0.686099 0.0010958 1.27371 0.0010958Z" fill="#5500FF"/>
<path d="M22.7621 0.00510783C23.3099 0.00510783 23.7164 0.259047 23.8951 0.706089C24.0776 1.16191 24.0067 1.57899 23.6516 1.93311C23.0908 2.49305 22.5345 3.05813 21.9636 3.60808C21.4892 4.06541 20.8237 4.06208 20.3563 3.62321C19.898 3.19252 19.8524 2.49971 20.2979 2.0227C20.8551 1.42553 21.4436 0.856818 22.0272 0.284471C22.1227 0.188642 22.2377 0.114159 22.3644 0.0659871C22.4911 0.0178154 22.6267 -0.00293869 22.7621 0.00510783Z" fill="#5500FF"/>
<path d="M1.25699 24.0003C0.695554 23.9979 0.351386 23.7821 0.139591 23.3771C-0.0749426 22.9667 -0.026254 22.5642 0.242446 22.1885C0.285622 22.1281 0.333765 22.0713 0.386381 22.0187C0.921346 21.4848 1.45144 20.9446 1.99615 20.421C2.46629 19.9697 3.06669 19.9331 3.55357 20.2999C4.09462 20.707 4.17983 21.4782 3.71211 21.9664C3.14672 22.5569 2.5588 23.1265 1.98032 23.7049C1.88627 23.8005 1.77362 23.876 1.64926 23.9267C1.52489 23.9775 1.39142 24.0026 1.25699 24.0003Z" fill="#5500FF"/>
<path d="M22.7262 23.9987C22.4755 24.0081 22.2049 23.8992 21.9837 23.6794C21.4302 23.1298 20.8657 22.5898 20.3341 22.0205C19.695 21.3344 19.9994 20.3165 20.8928 20.0904C21.2701 19.9947 21.6198 20.068 21.897 20.3343C22.5126 20.9264 23.1224 21.5256 23.7134 22.1416C24.0481 22.4909 24.0752 22.9206 23.8698 23.348C23.6571 23.7908 23.2877 24.0063 22.7262 23.9987Z" fill="#5500FF"/>
<path d="M10.2622 16.4895V7.07858C10.2622 6.62699 10.5057 6.3667 10.9779 6.3667H13.874C17.5049 6.3667 19.5824 8.55439 19.5824 11.7663C19.5824 14.9443 17.4176 17.2013 13.874 17.2013H10.9779C10.5078 17.2013 10.2622 16.941 10.2622 16.4895ZM13.8563 14.6662C15.6545 14.6662 16.7719 13.6765 16.7719 11.7663C16.7719 9.87403 15.7068 8.90155 13.874 8.90155H13.0378V14.6662H13.8563Z" fill="#5500FF"/>
<path d="M8.28008 11.9868C8.17662 11.5819 7.91096 11.3664 7.49072 11.3467C7.23617 11.3328 6.981 11.3341 6.72661 11.3506C6.31732 11.3809 6.01302 11.6645 5.95155 12.0746C5.93779 12.185 5.9325 12.2963 5.93573 12.4075V12.4681C5.93573 12.571 5.93573 12.647 5.93573 12.702C5.93573 12.702 5.93573 12.7036 5.93573 12.7042V14.6945C5.93573 14.842 5.93573 14.9896 5.93573 15.1373C5.9339 15.4911 5.93238 15.8568 5.94121 16.2175C5.9549 16.7772 6.25859 17.0995 6.81912 17.1492C6.9235 17.1585 7.03 17.1631 7.13742 17.1631C7.23886 17.1631 7.34029 17.159 7.44172 17.151C7.93896 17.111 8.23291 16.841 8.31264 16.3477C8.33056 16.2292 8.3389 16.1095 8.3376 15.9896V15.2799C8.3376 14.1403 8.3376 14.0538 8.3376 12.4666C8.33831 12.3049 8.319 12.1438 8.28008 11.9868Z" fill="#5500FF"/>
<path d="M7.11869 9.02079C7.14273 9.02231 7.16677 9.02291 7.19081 9.02291C7.51044 9.02136 7.81728 8.89785 8.04803 8.67787C8.32191 8.4209 8.48836 8.05528 8.48897 7.69994C8.48897 6.97081 7.87002 6.35307 7.13482 6.35095H7.13117C6.95331 6.34759 6.77656 6.37943 6.61118 6.44462C6.44581 6.5098 6.29511 6.60704 6.16785 6.73066C6.04058 6.85428 5.9393 7.00184 5.86987 7.16474C5.80045 7.32764 5.76427 7.50264 5.76344 7.67958C5.76262 7.85651 5.79715 8.03184 5.86505 8.19537C5.93295 8.35891 6.03286 8.50739 6.15896 8.63219C6.28506 8.75699 6.43484 8.85561 6.5996 8.92232C6.76436 8.98903 6.94081 9.0225 7.11869 9.02079Z" fill="#5500FF"/>
</svg>
